<svg id="sk-logo-pos" xmlns="http://www.w3.org/2000/svg" viewBox="0 0 287.24 62.62"><defs><style>.cls-1{fill:#fdfeff;}.cls-2{fill:#0d3880;}.cls-3{fill:#fff;}</style></defs><title>seek-design-logo-reverse</title><path class="cls-1" d="M81,42.46c-3.56,0-6.78-.39-9.64-3.26l3.69-3.69a8.23,8.23,0,0,0,6,2.13c2,0,4-.65,4-2.34,0-1.13-.61-1.91-2.39-2.09l-3.56-.35c-4.08-.39-6.6-2.17-6.6-6.34,0-4.69,4.12-7.21,8.73-7.21,3.52,0,6.47.61,8.64,2.65L86.4,25.48A7.87,7.87,0,0,0,81.14,24c-2.26,0-3.21,1-3.21,2.17,0,0.83.35,1.78,2.34,2l3.56,0.35c4.47,0.43,6.73,2.82,6.73,6.65,0,5-4.27,7.38-9.61,7.38h0Z"/><path class="cls-1" d="M98.28,32.64a4.67,4.67,0,0,0,5,5,6.26,6.26,0,0,0,5.12-2.13l3.43,3.34a10.77,10.77,0,0,1-8.6,3.56c-5.34,0-10.46-2.43-10.46-11.6,0-7.38,4-11.55,9.86-11.55,6.3,0,9.86,4.61,9.86,10.82V32.6H98.28v0Zm8.08-6.3a4.22,4.22,0,0,0-7.56,0,6.27,6.27,0,0,0-.51,2.46h8.6a6.35,6.35,0,0,0-.52-2.44h0v0Z"/><path class="cls-1" d="M120.56,32.64a4.67,4.67,0,0,0,5,5,6.26,6.26,0,0,0,5.13-2.13l3.43,3.34a10.77,10.77,0,0,1-8.6,3.56C120.18,42.41,115,40,115,30.81c0-7.38,4-11.55,9.86-11.55,6.3,0,9.86,4.61,9.86,10.82V32.6H120.56v0Zm8.08-6.3a4.22,4.22,0,0,0-7.56,0,6.23,6.23,0,0,0-.52,2.44h8.6a6.08,6.08,0,0,0-.52-2.44h0Z"/><path class="cls-1" d="M152,42.2l-5.55-9.4-2.39,2.7v6.7h-5.64V11.27h5.64V28.8l7.52-9.25h6.82l-8.08,9.12L159,42.2h-7Z"/><circle class="cls-2" cx="31.31" cy="31.31" r="31.31"/><path class="cls-3" d="M32,11.94a2,2,0,1,1,2,2A2,2,0,0,1,32,11.94Z"/><path class="cls-3" d="M38.13,18.51a2.16,2.16,0,1,1,2.16,2.16h0A2.16,2.16,0,0,1,38.13,18.51Z"/><path class="cls-3" d="M32,18.51a2,2,0,1,1,2,2A2,2,0,0,1,32,18.51Z"/><path class="cls-3" d="M44.61,25.11A2.42,2.42,0,1,1,47,27.53h0A2.42,2.42,0,0,1,44.61,25.11Z"/><path class="cls-3" d="M38.13,25.09a2.16,2.16,0,1,1,2.17,2.15h0A2.16,2.16,0,0,1,38.13,25.09Z"/><path class="cls-3" d="M32,25.09a2,2,0,1,1,2,2A2,2,0,0,1,32,25.09Z"/><path class="cls-3" d="M26.23,25.09a1.71,1.71,0,1,1,1.71,1.71h0A1.71,1.71,0,0,1,26.23,25.09Z"/><path class="cls-3" d="M21.38,25.09a1.47,1.47,0,1,1,1.47,1.47h0A1.47,1.47,0,0,1,21.38,25.09Z"/><path class="cls-3" d="M16.76,25.09A1.22,1.22,0,1,1,18,26.32a1.22,1.22,0,0,1-1.24-1.23S16.76,25.1,16.76,25.09Z"/><path class="cls-3" d="M12.84,25.09a1,1,0,1,1,1,1A1,1,0,0,1,12.84,25.09Z"/><path class="cls-3" d="M9.14,25.09a0.73,0.73,0,1,1,.73.73h0A0.73,0.73,0,0,1,9.14,25.09Z"/><path class="cls-3" d="M6,25.09a0.49,0.49,0,1,1,.49.49h0A0.49,0.49,0,0,1,6,25.09Z"/><path class="cls-3" d="M44.61,31.69A2.42,2.42,0,1,1,47,34.11h0A2.42,2.42,0,0,1,44.61,31.69Z"/><path class="cls-3" d="M38.13,31.67a2.16,2.16,0,1,1,2.19,2.13h0A2.16,2.16,0,0,1,38.13,31.67Z"/><path class="cls-3" d="M32,31.67a2,2,0,1,1,2,2,2,2,0,0,1-2-2h0Z"/><path class="cls-3" d="M26.23,31.67a1.71,1.71,0,1,1,1.71,1.71h0A1.71,1.71,0,0,1,26.23,31.67Z"/><path class="cls-3" d="M21.38,31.67a1.47,1.47,0,1,1,1.47,1.47h0A1.47,1.47,0,0,1,21.38,31.67Z"/><path class="cls-3" d="M16.76,31.67A1.22,1.22,0,1,1,18,32.89a1.22,1.22,0,0,1-1.24-1.22v0Z"/><path class="cls-3" d="M12.84,31.67a1,1,0,1,1,1,1,1,1,0,0,1-1-1h0Z"/><path class="cls-3" d="M9.14,31.67a0.73,0.73,0,1,1,.73.73,0.73,0.73,0,0,1-.73-0.73h0Z"/><path class="cls-3" d="M6,31.67a0.49,0.49,0,1,1,.49.49h0A0.49,0.49,0,0,1,6,31.67Z"/><path class="cls-3" d="M51.25,31.73a2.65,2.65,0,1,1,2.65,2.65A2.65,2.65,0,0,1,51.25,31.73Z"/><path class="cls-3" d="M44.61,38.26A2.42,2.42,0,1,1,47,40.69h0A2.42,2.42,0,0,1,44.61,38.26Z"/><path class="cls-3" d="M38.13,38.25a2.16,2.16,0,1,1,2.16,2.16h0A2.16,2.16,0,0,1,38.13,38.25Z"/><path class="cls-3" d="M32,38.25a2,2,0,1,1,2,2A2,2,0,0,1,32,38.25Z"/><path class="cls-3" d="M26.23,38.25A1.71,1.71,0,1,1,27.94,40h0A1.71,1.71,0,0,1,26.23,38.25Z"/><path class="cls-3" d="M21.38,38.25a1.47,1.47,0,1,1,1.47,1.47,1.47,1.47,0,0,1-1.47-1.47S21.38,38.26,21.38,38.25Z"/><path class="cls-3" d="M16.76,38.25A1.22,1.22,0,1,1,18,39.47a1.22,1.22,0,0,1-1.24-1.22v0Z"/><path class="cls-3" d="M12.84,38.25a1,1,0,1,1,1,1A1,1,0,0,1,12.84,38.25Z"/><path class="cls-3" d="M9.14,38.25a0.73,0.73,0,1,1,.73.73h0A0.73,0.73,0,0,1,9.14,38.25Z"/><path class="cls-3" d="M6,38.25a0.5,0.5,0,1,1,.5.5A0.5,0.5,0,0,1,6,38.25Z"/><path class="cls-3" d="M38.13,44.8A2.16,2.16,0,1,1,40.29,47h0A2.16,2.16,0,0,1,38.13,44.8Z"/><path class="cls-3" d="M32,44.8a2,2,0,1,1,2,2A2,2,0,0,1,32,44.8Z"/><path class="cls-3" d="M32,51.4a2,2,0,1,1,2,2A2,2,0,0,1,32,51.4Z"/><path class="cls-3" d="M170.61,30.53a16.34,16.34,0,0,1,.64-4.71,11.12,11.12,0,0,1,1.81-3.64,8.26,8.26,0,0,1,2.81-2.35,8,8,0,0,1,3.67-.84,8.7,8.7,0,0,1,3.61.7,7.63,7.63,0,0,1,2.67,2V9.93h3.87V42h-3.55l-0.19-2.42a7.54,7.54,0,0,1-2.72,2.11,8.87,8.87,0,0,1-3.74.73,7.72,7.72,0,0,1-3.62-.86,8.38,8.38,0,0,1-2.81-2.39,11.38,11.38,0,0,1-1.81-3.64,15.73,15.73,0,0,1-.64-4.59V30.53ZM174.48,31a14.11,14.11,0,0,0,.34,3.19,7.9,7.9,0,0,0,1.08,2.6,5.45,5.45,0,0,0,1.86,1.75,5.32,5.32,0,0,0,2.69.65,6.5,6.5,0,0,0,1.84-.24,5.41,5.41,0,0,0,1.47-.68,5.59,5.59,0,0,0,1.17-1,7.13,7.13,0,0,0,.89-1.34V25.47a7.36,7.36,0,0,0-.88-1.27,5.4,5.4,0,0,0-1.16-1,5.58,5.58,0,0,0-1.47-.67,6.42,6.42,0,0,0-1.82-.24,5.36,5.36,0,0,0-2.73.66,5.46,5.46,0,0,0-1.87,1.79,8.15,8.15,0,0,0-1.08,2.62,14.11,14.11,0,0,0-.34,3.19V31Z"/><path class="cls-3" d="M204,42.44a10.78,10.78,0,0,1-4.27-.82,9.52,9.52,0,0,1-3.27-2.27,10,10,0,0,1-2.09-3.46,12.7,12.7,0,0,1-.73-4.39V30.63a13.8,13.8,0,0,1,.83-4.93,11.07,11.07,0,0,1,2.2-3.66,9.53,9.53,0,0,1,3.16-2.27,9.07,9.07,0,0,1,3.7-.78,9.53,9.53,0,0,1,4.18.85,7.93,7.93,0,0,1,2.89,2.33,9.91,9.91,0,0,1,1.68,3.51,17,17,0,0,1,.54,4.41v1.73H197.5a9.66,9.66,0,0,0,.51,2.93,7.13,7.13,0,0,0,1.34,2.36,6.23,6.23,0,0,0,4.86,2.17,6.73,6.73,0,0,0,3.47-.84,8.7,8.7,0,0,0,2.49-2.21l2.36,1.84a10.31,10.31,0,0,1-1.32,1.62,9,9,0,0,1-1.81,1.4,9.49,9.49,0,0,1-2.37,1A11.49,11.49,0,0,1,204,42.44Zm-0.48-20.27a5.21,5.21,0,0,0-3.91,1.67,6.68,6.68,0,0,0-1.29,2,10.23,10.23,0,0,0-.7,2.78h11.32V28.36a10.76,10.76,0,0,0-.37-2.24,6.07,6.07,0,0,0-.94-2A4.85,4.85,0,0,0,206,22.71,5.17,5.17,0,0,0,203.51,22.17Z"/><path class="cls-3" d="M229.38,36a3.63,3.63,0,0,0-.19-1.18,2.48,2.48,0,0,0-.74-1,5.57,5.57,0,0,0-1.58-.91,16.39,16.39,0,0,0-2.7-.77,25.48,25.48,0,0,1-3.38-.94,10.34,10.34,0,0,1-2.56-1.31,5.37,5.37,0,0,1-1.62-1.81,5.07,5.07,0,0,1-.56-2.44,5.64,5.64,0,0,1,.6-2.54A6.49,6.49,0,0,1,218.32,21,8.24,8.24,0,0,1,221,19.53,10.54,10.54,0,0,1,224.4,19a11,11,0,0,1,3.63.55,8.26,8.26,0,0,1,2.72,1.51,6.48,6.48,0,0,1,1.7,2.25,6.56,6.56,0,0,1,.58,2.75h-3.89a3.38,3.38,0,0,0-.31-1.39,3.79,3.79,0,0,0-.92-1.25,4.74,4.74,0,0,0-1.48-.9,5.51,5.51,0,0,0-2-.34,6.54,6.54,0,0,0-2.06.28,4.05,4.05,0,0,0-1.39.75,2.89,2.89,0,0,0-.79,1.07,3.13,3.13,0,0,0-.25,1.22,2.9,2.9,0,0,0,.21,1.13,2.15,2.15,0,0,0,.79.91,6.47,6.47,0,0,0,1.6.75,25.14,25.14,0,0,0,2.62.7,25.46,25.46,0,0,1,3.59,1.09,9.84,9.84,0,0,1,2.53,1.41,5.22,5.22,0,0,1,1.49,1.85,5.64,5.64,0,0,1,.49,2.42,5.9,5.9,0,0,1-2.38,4.83,8.67,8.67,0,0,1-2.76,1.37,12.22,12.22,0,0,1-3.57.49,11.61,11.61,0,0,1-4-.63,8.9,8.9,0,0,1-2.89-1.66,7,7,0,0,1-1.78-2.36,6.49,6.49,0,0,1-.61-2.73h3.87a4,4,0,0,0,.57,2A4.25,4.25,0,0,0,221,38.36a5.18,5.18,0,0,0,1.69.71,8.25,8.25,0,0,0,1.84.21,7.82,7.82,0,0,0,2.09-.25,4.87,4.87,0,0,0,1.51-.69,3,3,0,0,0,.93-1A2.71,2.71,0,0,0,229.38,36Z"/><path class="cls-3" d="M237.23,13.42a2.31,2.31,0,0,1,.57-1.59,2.16,2.16,0,0,1,1.7-.65,2.19,2.19,0,0,1,1.71.65,2.28,2.28,0,0,1,.58,1.59,2.39,2.39,0,0,1-4,1.57A2.23,2.23,0,0,1,237.23,13.42ZM241.41,42h-3.87V19.41h3.87V42Z"/><path class="cls-3" d="M245.6,30.53a16.84,16.84,0,0,1,.62-4.71A10.94,10.94,0,0,1,248,22.18,7.93,7.93,0,0,1,254.52,19a8.66,8.66,0,0,1,3.74.75A7.58,7.58,0,0,1,261,21.92l0.19-2.51h3.53V41.54a10.62,10.62,0,0,1-.7,4,8.17,8.17,0,0,1-2,2.95,8.55,8.55,0,0,1-3,1.83,11.48,11.48,0,0,1-3.89.63,11.94,11.94,0,0,1-2-.2,12.18,12.18,0,0,1-2.3-.65,10.29,10.29,0,0,1-2.23-1.2A7.21,7.21,0,0,1,246.75,47l2-2.32a9,9,0,0,0,1.46,1.46,8,8,0,0,0,1.51.94,6.87,6.87,0,0,0,1.55.51,7.93,7.93,0,0,0,1.56.16,7.44,7.44,0,0,0,2.47-.39,5,5,0,0,0,1.89-1.16,5.13,5.13,0,0,0,1.2-1.89,7.4,7.4,0,0,0,.42-2.6v-2a7.61,7.61,0,0,1-2.68,2,8.93,8.93,0,0,1-3.65.69,7.81,7.81,0,0,1-3.67-.86,8.3,8.3,0,0,1-2.8-2.39,11.35,11.35,0,0,1-1.79-3.64A16,16,0,0,1,245.6,31V30.53ZM249.49,31a14.17,14.17,0,0,0,.34,3.19,8.06,8.06,0,0,0,1.07,2.6,5.14,5.14,0,0,0,4.54,2.4,6.35,6.35,0,0,0,1.85-.25,5.55,5.55,0,0,0,1.48-.69,5.33,5.33,0,0,0,1.16-1,7.32,7.32,0,0,0,.88-1.34V25.51a7.73,7.73,0,0,0-.88-1.28,5.49,5.49,0,0,0-1.16-1,5.36,5.36,0,0,0-1.47-.68,6.42,6.42,0,0,0-1.82-.24,5.3,5.3,0,0,0-2.72.66,5.49,5.49,0,0,0-1.86,1.79,8.17,8.17,0,0,0-1.08,2.62,14.16,14.16,0,0,0-.34,3.19V31Z"/><path class="cls-3" d="M273.11,19.41l0.13,2.84a8.73,8.73,0,0,1,2.92-2.39A8.39,8.39,0,0,1,280,19a9.35,9.35,0,0,1,3,.45,5.5,5.5,0,0,1,2.28,1.44,6.68,6.68,0,0,1,1.45,2.55,12.17,12.17,0,0,1,.51,3.77V42h-3.87V27.16a7.56,7.56,0,0,0-.29-2.25,3.72,3.72,0,0,0-.87-1.52,3.42,3.42,0,0,0-1.42-.86,6.41,6.41,0,0,0-2-.27,5.58,5.58,0,0,0-3.3,1,6.81,6.81,0,0,0-2.21,2.63V42h-3.87V19.41h3.66Z"/></svg>