<svg id="sk-logo-pos" xmlns="http://www.w3.org/2000/svg" viewBox="0 0 159 62.62"><defs><style>.cls-1{fill:#fdfeff;}.cls-2{fill:#0d3880;}.cls-3{fill:#fff;}</style></defs><title>seek-logo-reverse</title><path class="cls-1" d="M81,42.66c-3.56,0-6.78-.39-9.64-3.26l3.69-3.69a8.23,8.23,0,0,0,6,2.13c2,0,4-.65,4-2.34,0-1.13-.61-1.91-2.39-2.09l-3.56-.35c-4.08-.39-6.6-2.17-6.6-6.34,0-4.69,4.12-7.21,8.73-7.21,3.52,0,6.47.61,8.64,2.65l-3.47,3.52a7.87,7.87,0,0,0-5.26-1.52c-2.26,0-3.21,1-3.21,2.17,0,0.83.35,1.78,2.34,2l3.56,0.35c4.47,0.43,6.73,2.82,6.73,6.65,0,5-4.27,7.38-9.61,7.38h0Z" transform="translate(0 -0.2)"/><path class="cls-1" d="M98.28,32.84a4.67,4.67,0,0,0,5,5,6.26,6.26,0,0,0,5.12-2.13l3.43,3.34a10.77,10.77,0,0,1-8.6,3.56c-5.34,0-10.46-2.43-10.46-11.6,0-7.38,4-11.55,9.86-11.55,6.3,0,9.86,4.61,9.86,10.82v2.52H98.28Zm8.08-6.3a4.22,4.22,0,0,0-7.56,0A6.27,6.27,0,0,0,98.29,29h8.6a6.35,6.35,0,0,0-.52-2.44h0Z" transform="translate(0 -0.2)"/><path class="cls-1" d="M120.56,32.84a4.67,4.67,0,0,0,5,5,6.26,6.26,0,0,0,5.13-2.13l3.43,3.34a10.77,10.77,0,0,1-8.6,3.56c-5.34,0-10.47-2.43-10.47-11.6,0-7.38,4-11.55,9.86-11.55,6.3,0,9.86,4.61,9.86,10.82v2.52H120.56Zm8.08-6.3a4.22,4.22,0,0,0-7.56,0,6.23,6.23,0,0,0-.52,2.44h8.6a6.08,6.08,0,0,0-.52-2.44h0Z" transform="translate(0 -0.2)"/><path class="cls-1" d="M152,42.4L146.45,33l-2.39,2.7V42.4h-5.64V11.47h5.64V29l7.52-9.25h6.82l-8.08,9.12L159,42.4h-7Z" transform="translate(0 -0.2)"/><circle class="cls-2" cx="31.31" cy="31.31" r="31.31"/><path class="cls-3" d="M32,12.14a2,2,0,1,1,2,2A2,2,0,0,1,32,12.14Z" transform="translate(0 -0.2)"/><path class="cls-3" d="M38.13,18.71a2.16,2.16,0,1,1,2.15,2.16A2.16,2.16,0,0,1,38.13,18.71Z" transform="translate(0 -0.2)"/><path class="cls-3" d="M32,18.71a2,2,0,1,1,2,2A2,2,0,0,1,32,18.71Z" transform="translate(0 -0.2)"/><path class="cls-3" d="M44.61,25.31A2.42,2.42,0,1,1,47,27.73,2.42,2.42,0,0,1,44.61,25.31Z" transform="translate(0 -0.2)"/><path class="cls-3" d="M38.13,25.29a2.16,2.16,0,1,1,2.15,2.15A2.16,2.16,0,0,1,38.13,25.29Z" transform="translate(0 -0.2)"/><path class="cls-3" d="M32,25.29a2,2,0,1,1,2,2A2,2,0,0,1,32,25.29Z" transform="translate(0 -0.2)"/><path class="cls-3" d="M26.23,25.29A1.71,1.71,0,1,1,27.94,27,1.71,1.71,0,0,1,26.23,25.29Z" transform="translate(0 -0.2)"/><path class="cls-3" d="M21.38,25.29a1.47,1.47,0,1,1,1.47,1.47A1.47,1.47,0,0,1,21.38,25.29Z" transform="translate(0 -0.2)"/><path class="cls-3" d="M16.76,25.29A1.22,1.22,0,1,1,18,26.52,1.22,1.22,0,0,1,16.76,25.29Z" transform="translate(0 -0.2)"/><path class="cls-3" d="M12.84,25.29a1,1,0,1,1,1,1A1,1,0,0,1,12.84,25.29Z" transform="translate(0 -0.2)"/><path class="cls-3" d="M9.14,25.29a0.73,0.73,0,1,1,.73.73A0.73,0.73,0,0,1,9.14,25.29Z" transform="translate(0 -0.2)"/><path class="cls-3" d="M6,25.29a0.49,0.49,0,1,1,.49.49A0.49,0.49,0,0,1,6,25.29Z" transform="translate(0 -0.2)"/><path class="cls-3" d="M44.61,31.89A2.42,2.42,0,1,1,47,34.31,2.42,2.42,0,0,1,44.61,31.89Z" transform="translate(0 -0.2)"/><path class="cls-3" d="M38.13,31.87A2.16,2.16,0,1,1,40.28,34,2.16,2.16,0,0,1,38.13,31.87Z" transform="translate(0 -0.2)"/><path class="cls-3" d="M32,31.87a2,2,0,1,1,2,2A2,2,0,0,1,32,31.87Z" transform="translate(0 -0.2)"/><path class="cls-3" d="M26.23,31.87a1.71,1.71,0,1,1,1.71,1.71A1.71,1.71,0,0,1,26.23,31.87Z" transform="translate(0 -0.2)"/><path class="cls-3" d="M21.38,31.87a1.47,1.47,0,1,1,1.47,1.47A1.47,1.47,0,0,1,21.38,31.87Z" transform="translate(0 -0.2)"/><path class="cls-3" d="M16.76,31.87A1.22,1.22,0,1,1,18,33.09,1.22,1.22,0,0,1,16.76,31.87Z" transform="translate(0 -0.2)"/><path class="cls-3" d="M12.84,31.87a1,1,0,1,1,1,1A1,1,0,0,1,12.84,31.87Z" transform="translate(0 -0.2)"/><path class="cls-3" d="M9.14,31.87a0.73,0.73,0,1,1,.73.73A0.73,0.73,0,0,1,9.14,31.87Z" transform="translate(0 -0.2)"/><path class="cls-3" d="M6,31.87a0.49,0.49,0,1,1,.49.49A0.49,0.49,0,0,1,6,31.87Z" transform="translate(0 -0.2)"/><path class="cls-3" d="M51.25,31.93a2.65,2.65,0,1,1,2.65,2.65A2.66,2.66,0,0,1,51.25,31.93Z" transform="translate(0 -0.2)"/><path class="cls-3" d="M44.61,38.46A2.42,2.42,0,1,1,47,40.89,2.42,2.42,0,0,1,44.61,38.46Z" transform="translate(0 -0.2)"/><path class="cls-3" d="M38.13,38.45a2.16,2.16,0,1,1,2.15,2.16A2.16,2.16,0,0,1,38.13,38.45Z" transform="translate(0 -0.2)"/><path class="cls-3" d="M32,38.45a2,2,0,1,1,2,2A2,2,0,0,1,32,38.45Z" transform="translate(0 -0.2)"/><path class="cls-3" d="M26.23,38.45a1.71,1.71,0,1,1,1.71,1.71A1.71,1.71,0,0,1,26.23,38.45Z" transform="translate(0 -0.2)"/><path class="cls-3" d="M21.38,38.45a1.47,1.47,0,1,1,1.47,1.47A1.46,1.46,0,0,1,21.38,38.45Z" transform="translate(0 -0.2)"/><path class="cls-3" d="M16.76,38.45A1.22,1.22,0,1,1,18,39.67,1.22,1.22,0,0,1,16.76,38.45Z" transform="translate(0 -0.2)"/><path class="cls-3" d="M12.84,38.45a1,1,0,1,1,1,1A1,1,0,0,1,12.84,38.45Z" transform="translate(0 -0.2)"/><path class="cls-3" d="M9.14,38.45a0.73,0.73,0,1,1,.73.73A0.73,0.73,0,0,1,9.14,38.45Z" transform="translate(0 -0.2)"/><path class="cls-3" d="M6,38.45a0.49,0.49,0,1,1,1,0A0.49,0.49,0,0,1,6,38.45Z" transform="translate(0 -0.2)"/><path class="cls-3" d="M38.13,45a2.16,2.16,0,1,1,2.15,2.16A2.16,2.16,0,0,1,38.13,45Z" transform="translate(0 -0.2)"/><path class="cls-3" d="M32,45a2,2,0,1,1,2,2A2,2,0,0,1,32,45Z" transform="translate(0 -0.2)"/><path class="cls-3" d="M32,51.6a2,2,0,1,1,2,2A2,2,0,0,1,32,51.6Z" transform="translate(0 -0.2)"/></svg>